<svg width="134" height="134" viewBox="0 0 134 134" fill="none" xmlns="http://www.w3.org/2000/svg">
<path d="M67 134C29.9937 134 0 104.006 0 67C0 29.9937 29.9937 0 67 0C104.006 0 134 29.9937 134 67C134 104.006 104.006 134 67 134Z" fill="#52B39D" fill-opacity="0.1"/>
<path d="M66.9998 121.151C37.0906 121.151 12.8491 96.9093 12.8491 67C12.8491 37.0908 37.0906 12.8494 66.9998 12.8494C96.909 12.8494 121.15 37.0908 121.15 67C121.15 96.9093 96.909 121.151 66.9998 121.151Z" fill="#52B39D" fill-opacity="0.1"/>
<path d="M66.9998 110.137C43.1738 110.137 23.8628 90.826 23.8628 67C23.8628 43.174 43.1738 23.863 66.9998 23.863C90.8258 23.863 110.137 43.174 110.137 67C110.137 90.826 90.8258 110.137 66.9998 110.137Z" fill="#52B39D"/>
<path d="M85.0212 56.5107L61.0562 80.4757L46.6772 66.0967" stroke="white" stroke-width="5"/>
</svg>
