<svg width="37" height="35" viewBox="0 0 37 35" fill="none" xmlns="http://www.w3.org/2000/svg">
<path fill-rule="evenodd" clip-rule="evenodd" d="M19.1841 12.5753C24.7825 9.99378 31.4371 12.3893 34.0472 17.9253C36.6572 23.4613 34.2358 30.0423 28.6374 32.6227C24.4269 34.5633 10.3516 34.1517 3.63133 33.8284C2.05577 33.7526 1.23186 31.9726 2.19269 30.7216C6.26888 25.4145 14.98 14.5129 19.1841 12.5753Z" fill="#4F43A7"/>
<path fill-rule="evenodd" clip-rule="evenodd" d="M17.8161 22.4247C12.2176 25.0062 5.56302 22.6107 2.95297 17.0747C0.342926 11.5387 2.76437 4.95773 8.3628 2.37734C12.5732 0.4367 26.6483 0.848275 33.3686 1.17164C34.9442 1.24745 35.7681 3.02751 34.8072 4.27848C30.7309 9.58528 22.02 20.4858 17.8161 22.4247Z" fill="#52B39D"/>
</svg>
