<svg width="20" height="25" viewBox="0 0 20 25" fill="none" xmlns="http://www.w3.org/2000/svg">
<path d="M18.2466 5.38943L14.6106 1.75343C14.1284 1.27129 13.474 1 12.7926 1H3.57143C2.15071 1 1 2.15071 1 3.57143V21.5714C1 22.9921 2.15071 24.1429 3.57143 24.1429H16.4286C17.8493 24.1429 19 22.9921 19 21.5714V7.20743C19 6.526 18.7287 5.87157 18.2466 5.38943V5.38943Z" stroke="#4F43A7" stroke-width="1.5" stroke-linecap="round" stroke-linejoin="round"/>
<path d="M18.9998 7.42857H13.8569C13.1472 7.42857 12.5712 6.85257 12.5712 6.14286V1M9.99979 11.2857V20.2857M4.85693 15.7857H15.1426M13.8569 20.2857H6.14265C5.43293 20.2857 4.85693 19.7097 4.85693 19V12.5714C4.85693 11.8617 5.43293 11.2857 6.14265 11.2857H13.8569C14.5666 11.2857 15.1426 11.8617 15.1426 12.5714V19C15.1426 19.7097 14.5666 20.2857 13.8569 20.2857Z" stroke="#4F43A7" stroke-width="1.5" stroke-linecap="round" stroke-linejoin="round"/>
</svg>
