<svg width="35" height="41" viewBox="0 0 35 41" fill="none" xmlns="http://www.w3.org/2000/svg">
<path d="M34.1029 37.7199L31.6861 29.6493C31.3838 28.5704 30.3913 27.8367 29.2259 27.8367H24.6081C23.6587 29.5198 22.7091 31.1599 21.9755 32.4548C21.026 34.0948 19.2564 35.1305 17.4008 35.1305C15.5451 35.1305 13.7756 34.0946 12.8261 32.4978C12.0494 31.16 11.0999 29.5198 10.1504 27.8367H5.61837C4.49634 27.8367 3.50354 28.5704 3.1582 29.6494L0.741418 37.72C0.266662 39.3601 1.47507 40.9999 3.20159 40.9999H31.5997C33.3693 41.0002 34.5777 39.3601 34.1029 37.7203V37.7199Z" fill="white"/>
<path d="M15.8472 30.7284C16.5378 31.8937 18.2209 31.8937 18.9115 30.7284C21.3717 26.4556 25.9895 18.342 27.2411 16.0114C28.9242 12.947 28.8812 9.32183 27.2411 6.08505C24.522 0.647189 17.8757 -1.55373 12.4378 1.16532C6.95695 3.92744 4.84204 10.7896 7.51777 16.0117C8.7262 18.3421 13.3873 26.456 15.8473 30.7287L15.8472 30.7284ZM17.4008 6.25768C20.0766 6.25768 22.1914 8.41559 22.1914 11.0482C22.1914 13.6809 20.0335 15.8388 17.4008 15.8388C14.7682 15.8388 12.6103 13.6809 12.6103 11.0482C12.6533 8.41559 14.7682 6.25768 17.4008 6.25768Z" fill="white"/>
</svg>
