<svg width="360" height="35" viewBox="0 0 360 35" fill="none" xmlns="http://www.w3.org/2000/svg">
<path d="M62.832 13.944C62.776 13.8507 62.58 13.7107 62.244 13.524C61.908 13.3187 61.488 13.104 60.984 12.88C60.48 12.656 59.9293 12.46 59.332 12.292C58.7347 12.124 58.1373 12.04 57.54 12.04C56.756 12.04 56.1493 12.18 55.72 12.46C55.2907 12.7213 55.076 13.132 55.076 13.692C55.076 14.14 55.2347 14.4947 55.552 14.756C55.888 15.0173 56.364 15.2507 56.98 15.456C57.596 15.6427 58.352 15.8667 59.248 16.128C60.5173 16.464 61.6187 16.8747 62.552 17.36C63.4853 17.8267 64.1947 18.4333 64.68 19.18C65.184 19.9267 65.436 20.916 65.436 22.148C65.436 23.268 65.2307 24.22 64.82 25.004C64.4093 25.7693 63.8493 26.3947 63.14 26.88C62.4493 27.3467 61.656 27.692 60.76 27.916C59.864 28.1213 58.94 28.224 57.988 28.224C57.0173 28.224 56.0187 28.1307 54.992 27.944C53.984 27.7387 53.0133 27.4587 52.08 27.104C51.1467 26.7307 50.288 26.2827 49.504 25.76L51.52 21.756C51.5947 21.8493 51.8373 22.0267 52.248 22.288C52.6587 22.5307 53.1627 22.792 53.76 23.072C54.376 23.3333 55.0573 23.5667 55.804 23.772C56.5507 23.9773 57.3067 24.08 58.072 24.08C58.8933 24.08 59.5 23.9493 59.892 23.688C60.3027 23.4267 60.508 23.0627 60.508 22.596C60.508 22.092 60.2933 21.7 59.864 21.42C59.4533 21.14 58.884 20.888 58.156 20.664C57.4467 20.44 56.6253 20.188 55.692 19.908C54.4787 19.5347 53.4707 19.1147 52.668 18.648C51.884 18.1813 51.296 17.612 50.904 16.94C50.5307 16.268 50.344 15.428 50.344 14.42C50.344 13.02 50.6707 11.844 51.324 10.892C51.996 9.92133 52.892 9.19333 54.012 8.708C55.132 8.204 56.3547 7.952 57.68 7.952C58.6133 7.952 59.5093 8.064 60.368 8.288C61.2453 8.512 62.0573 8.792 62.804 9.128C63.5693 9.464 64.2507 9.8 64.848 10.136L62.832 13.944ZM83.2786 12.152H77.2306V28H72.6386V12.152H66.5626V8.12H83.2786V12.152ZM93.8464 28.168C92.353 28.168 90.9997 27.888 89.7864 27.328C88.5917 26.7493 87.5557 25.984 86.6784 25.032C85.8197 24.0613 85.157 22.9787 84.6904 21.784C84.2237 20.5707 83.9904 19.32 83.9904 18.032C83.9904 16.7067 84.233 15.4467 84.7184 14.252C85.2224 13.0573 85.913 11.9933 86.7904 11.06C87.6864 10.108 88.741 9.36133 89.9544 8.82C91.1677 8.27867 92.493 8.008 93.9304 8.008C95.405 8.008 96.7397 8.29733 97.9344 8.876C99.1477 9.436 100.184 10.2013 101.042 11.172C101.92 12.1427 102.592 13.2347 103.058 14.448C103.525 15.6427 103.758 16.8653 103.758 18.116C103.758 19.4413 103.516 20.7013 103.03 21.896C102.545 23.0907 101.854 24.164 100.958 25.116C100.062 26.0493 99.0077 26.796 97.7944 27.356C96.5997 27.8973 95.2837 28.168 93.8464 28.168ZM88.6664 18.088C88.6664 18.8533 88.7784 19.6 89.0024 20.328C89.2264 21.0373 89.553 21.672 89.9824 22.232C90.4304 22.792 90.981 23.24 91.6344 23.576C92.2877 23.912 93.0344 24.08 93.8744 24.08C94.7517 24.08 95.517 23.912 96.1704 23.576C96.8237 23.2213 97.365 22.7547 97.7944 22.176C98.2237 21.5973 98.541 20.9533 98.7464 20.244C98.9704 19.516 99.0824 18.7787 99.0824 18.032C99.0824 17.2667 98.9704 16.5293 98.7464 15.82C98.5224 15.1107 98.1864 14.476 97.7384 13.916C97.2904 13.3373 96.7397 12.8893 96.0864 12.572C95.433 12.2547 94.6957 12.096 93.8744 12.096C92.997 12.096 92.2317 12.264 91.5784 12.6C90.9437 12.936 90.4024 13.3933 89.9544 13.972C89.525 14.532 89.1984 15.176 88.9744 15.904C88.769 16.6133 88.6664 17.3413 88.6664 18.088ZM122.092 28V16.156L117.808 24.78H115.288L111.004 16.156V28H106.412V8.12H111.396L116.548 18.508L121.728 8.12H126.684V28H122.092ZM135.514 8.12H140.47L147.302 28H142.598L141.058 23.548H134.87L133.358 28H128.654L135.514 8.12ZM140.302 20.384L137.978 12.74L135.598 20.384H140.302ZM162.575 12.152H156.527V28H151.935V12.152H145.859V8.12H162.575V12.152Z" fill="#223D4E"/>
<path d="M164.426 28V23.436H168.094V28H164.426ZM171.517 28V8.12H180.001C180.953 8.12 181.821 8.316 182.605 8.708C183.408 9.08133 184.099 9.59467 184.677 10.248C185.256 10.8827 185.704 11.6013 186.021 12.404C186.339 13.2067 186.497 14.028 186.497 14.868C186.497 16.0067 186.227 17.0893 185.685 18.116C185.163 19.1427 184.425 19.9827 183.473 20.636C182.54 21.2707 181.429 21.588 180.141 21.588H176.109V28H171.517ZM176.109 17.584H179.861C180.216 17.584 180.543 17.4813 180.841 17.276C181.14 17.0707 181.383 16.7627 181.569 16.352C181.756 15.9413 181.849 15.4373 181.849 14.84C181.849 14.224 181.737 13.72 181.513 13.328C181.308 12.9173 181.037 12.6187 180.701 12.432C180.384 12.2453 180.048 12.152 179.693 12.152H176.109V17.584ZM188.963 28V8.12H197.923C198.856 8.12 199.715 8.316 200.499 8.708C201.301 9.08133 201.992 9.59467 202.571 10.248C203.149 10.8827 203.597 11.6013 203.915 12.404C204.251 13.2067 204.419 14.0187 204.419 14.84C204.419 15.6613 204.288 16.4453 204.027 17.192C203.765 17.92 203.392 18.5827 202.907 19.18C202.421 19.7587 201.843 20.2347 201.171 20.608L205.539 28H200.471L196.663 21.588H193.555V28H188.963ZM193.555 17.584H197.755C198.128 17.584 198.455 17.472 198.735 17.248C199.033 17.0053 199.276 16.6787 199.463 16.268C199.649 15.8573 199.743 15.3813 199.743 14.84C199.743 14.2987 199.631 13.832 199.407 13.44C199.201 13.0293 198.94 12.712 198.623 12.488C198.305 12.264 197.969 12.152 197.615 12.152H193.555V17.584ZM216.237 28.168C214.744 28.168 213.39 27.888 212.177 27.328C210.982 26.7493 209.946 25.984 209.069 25.032C208.21 24.0613 207.548 22.9787 207.081 21.784C206.614 20.5707 206.381 19.32 206.381 18.032C206.381 16.7067 206.624 15.4467 207.109 14.252C207.613 13.0573 208.304 11.9933 209.181 11.06C210.077 10.108 211.132 9.36133 212.345 8.82C213.558 8.27867 214.884 8.008 216.321 8.008C217.796 8.008 219.13 8.29733 220.325 8.876C221.538 9.436 222.574 10.2013 223.433 11.172C224.31 12.1427 224.982 13.2347 225.449 14.448C225.916 15.6427 226.149 16.8653 226.149 18.116C226.149 19.4413 225.906 20.7013 225.421 21.896C224.936 23.0907 224.245 24.164 223.349 25.116C222.453 26.0493 221.398 26.796 220.185 27.356C218.99 27.8973 217.674 28.168 216.237 28.168ZM211.057 18.088C211.057 18.8533 211.169 19.6 211.393 20.328C211.617 21.0373 211.944 21.672 212.373 22.232C212.821 22.792 213.372 23.24 214.025 23.576C214.678 23.912 215.425 24.08 216.265 24.08C217.142 24.08 217.908 23.912 218.561 23.576C219.214 23.2213 219.756 22.7547 220.185 22.176C220.614 21.5973 220.932 20.9533 221.137 20.244C221.361 19.516 221.473 18.7787 221.473 18.032C221.473 17.2667 221.361 16.5293 221.137 15.82C220.913 15.1107 220.577 14.476 220.129 13.916C219.681 13.3373 219.13 12.8893 218.477 12.572C217.824 12.2547 217.086 12.096 216.265 12.096C215.388 12.096 214.622 12.264 213.969 12.6C213.334 12.936 212.793 13.3933 212.345 13.972C211.916 14.532 211.589 15.176 211.365 15.904C211.16 16.6133 211.057 17.3413 211.057 18.088Z" fill="#52B39D"/>
<path d="M232.385 13.04C232.385 12.5633 232.469 12.0977 232.638 11.643C232.807 11.181 233.052 10.763 233.375 10.389C233.705 10.0077 234.105 9.707 234.574 9.487C235.043 9.25967 235.575 9.146 236.169 9.146C236.873 9.146 237.482 9.30733 237.995 9.63C238.508 9.94533 238.89 10.3523 239.139 10.851L238.171 11.5C238.024 11.1847 237.837 10.9353 237.61 10.752C237.39 10.5687 237.148 10.4403 236.884 10.367C236.627 10.2937 236.374 10.257 236.125 10.257C235.714 10.257 235.355 10.3413 235.047 10.51C234.739 10.6713 234.479 10.8877 234.266 11.159C234.061 11.4303 233.903 11.7347 233.793 12.072C233.69 12.4093 233.639 12.7467 233.639 13.084C233.639 13.458 233.701 13.821 233.826 14.173C233.951 14.5177 234.123 14.8257 234.343 15.097C234.57 15.361 234.838 15.57 235.146 15.724C235.454 15.878 235.791 15.955 236.158 15.955C236.407 15.955 236.668 15.911 236.939 15.823C237.21 15.735 237.46 15.5993 237.687 15.416C237.922 15.2253 238.105 14.976 238.237 14.668L239.26 15.251C239.099 15.6397 238.846 15.9697 238.501 16.241C238.164 16.5123 237.782 16.7177 237.357 16.857C236.939 16.9963 236.525 17.066 236.114 17.066C235.564 17.066 235.062 16.9523 234.607 16.725C234.152 16.4903 233.76 16.1823 233.43 15.801C233.1 15.4123 232.843 14.9797 232.66 14.503C232.477 14.019 232.385 13.5313 232.385 13.04ZM246.131 10.279H243.535V17H242.292V10.279H239.685V9.19H246.131V10.279ZM250.208 17.055C249.643 17.055 249.134 16.945 248.679 16.725C248.224 16.505 247.832 16.208 247.502 15.834C247.172 15.4527 246.915 15.0273 246.732 14.558C246.556 14.0813 246.468 13.5937 246.468 13.095C246.468 12.5743 246.563 12.0793 246.754 11.61C246.945 11.1333 247.209 10.7117 247.546 10.345C247.883 9.971 248.279 9.67767 248.734 9.465C249.196 9.245 249.695 9.135 250.23 9.135C250.787 9.135 251.293 9.24867 251.748 9.476C252.21 9.70333 252.602 10.0077 252.925 10.389C253.255 10.7703 253.508 11.1957 253.684 11.665C253.867 12.1343 253.959 12.6147 253.959 13.106C253.959 13.6267 253.864 14.1253 253.673 14.602C253.49 15.0713 253.229 15.493 252.892 15.867C252.555 16.2337 252.155 16.5233 251.693 16.736C251.238 16.9487 250.743 17.055 250.208 17.055ZM247.722 13.095C247.722 13.4617 247.781 13.8173 247.898 14.162C248.015 14.5067 248.18 14.8147 248.393 15.086C248.613 15.35 248.877 15.559 249.185 15.713C249.493 15.867 249.838 15.944 250.219 15.944C250.615 15.944 250.967 15.8633 251.275 15.702C251.583 15.5407 251.84 15.3243 252.045 15.053C252.258 14.7743 252.419 14.4663 252.529 14.129C252.639 13.7843 252.694 13.4397 252.694 13.095C252.694 12.7283 252.635 12.3763 252.518 12.039C252.408 11.6943 252.243 11.39 252.023 11.126C251.803 10.8547 251.539 10.642 251.231 10.488C250.93 10.334 250.593 10.257 250.219 10.257C249.823 10.257 249.471 10.3377 249.163 10.499C248.855 10.6603 248.595 10.8767 248.382 11.148C248.169 11.4193 248.004 11.7237 247.887 12.061C247.777 12.3983 247.722 12.743 247.722 13.095ZM261.801 17V11.434L259.502 15.658H258.776L256.466 11.434V17H255.234V9.19H256.554L259.139 13.964L261.724 9.19H263.044V17H261.801ZM267.061 9.19H268.227L271.263 17H269.965L269.14 14.877H266.126L265.312 17H264.003L267.061 9.19ZM268.898 13.964L267.644 10.543L266.346 13.964H268.898ZM277.24 10.279H274.644V17H273.401V10.279H270.794V9.19H277.24V10.279ZM281.317 17.055C280.753 17.055 280.243 16.945 279.788 16.725C279.334 16.505 278.941 16.208 278.611 15.834C278.281 15.4527 278.025 15.0273 277.841 14.558C277.665 14.0813 277.577 13.5937 277.577 13.095C277.577 12.5743 277.673 12.0793 277.863 11.61C278.054 11.1333 278.318 10.7117 278.655 10.345C278.993 9.971 279.389 9.67767 279.843 9.465C280.305 9.245 280.804 9.135 281.339 9.135C281.897 9.135 282.403 9.24867 282.857 9.476C283.319 9.70333 283.712 10.0077 284.034 10.389C284.364 10.7703 284.617 11.1957 284.793 11.665C284.977 12.1343 285.068 12.6147 285.068 13.106C285.068 13.6267 284.973 14.1253 284.782 14.602C284.599 15.0713 284.339 15.493 284.001 15.867C283.664 16.2337 283.264 16.5233 282.802 16.736C282.348 16.9487 281.853 17.055 281.317 17.055ZM278.831 13.095C278.831 13.4617 278.89 13.8173 279.007 14.162C279.125 14.5067 279.29 14.8147 279.502 15.086C279.722 15.35 279.986 15.559 280.294 15.713C280.602 15.867 280.947 15.944 281.328 15.944C281.724 15.944 282.076 15.8633 282.384 15.702C282.692 15.5407 282.949 15.3243 283.154 15.053C283.367 14.7743 283.528 14.4663 283.638 14.129C283.748 13.7843 283.803 13.4397 283.803 13.095C283.803 12.7283 283.745 12.3763 283.627 12.039C283.517 11.6943 283.352 11.39 283.132 11.126C282.912 10.8547 282.648 10.642 282.34 10.488C282.04 10.334 281.702 10.257 281.328 10.257C280.932 10.257 280.58 10.3377 280.272 10.499C279.964 10.6603 279.704 10.8767 279.491 11.148C279.279 11.4193 279.114 11.7237 278.996 12.061C278.886 12.3983 278.831 12.743 278.831 13.095ZM291.415 17V10.279H288.808L288.764 11.731C288.72 12.7797 288.636 13.6487 288.511 14.338C288.386 15.02 288.207 15.559 287.972 15.955C287.737 16.3437 287.444 16.6223 287.092 16.791C286.74 16.9523 286.318 17.033 285.827 17.033V15.955C286.098 15.955 286.337 15.8927 286.542 15.768C286.747 15.636 286.92 15.405 287.059 15.075C287.206 14.745 287.319 14.283 287.4 13.689C287.488 13.0877 287.547 12.3213 287.576 11.39L287.653 9.19H292.658V17H291.415ZM297.667 17.055C297.102 17.055 296.593 16.945 296.138 16.725C295.683 16.505 295.291 16.208 294.961 15.834C294.631 15.4527 294.374 15.0273 294.191 14.558C294.015 14.0813 293.927 13.5937 293.927 13.095C293.927 12.5743 294.022 12.0793 294.213 11.61C294.404 11.1333 294.668 10.7117 295.005 10.345C295.342 9.971 295.738 9.67767 296.193 9.465C296.655 9.245 297.154 9.135 297.689 9.135C298.246 9.135 298.752 9.24867 299.207 9.476C299.669 9.70333 300.061 10.0077 300.384 10.389C300.714 10.7703 300.967 11.1957 301.143 11.665C301.326 12.1343 301.418 12.6147 301.418 13.106C301.418 13.6267 301.323 14.1253 301.132 14.602C300.949 15.0713 300.688 15.493 300.351 15.867C300.014 16.2337 299.614 16.5233 299.152 16.736C298.697 16.9487 298.202 17.055 297.667 17.055ZM295.181 13.095C295.181 13.4617 295.24 13.8173 295.357 14.162C295.474 14.5067 295.639 14.8147 295.852 15.086C296.072 15.35 296.336 15.559 296.644 15.713C296.952 15.867 297.297 15.944 297.678 15.944C298.074 15.944 298.426 15.8633 298.734 15.702C299.042 15.5407 299.299 15.3243 299.504 15.053C299.717 14.7743 299.878 14.4663 299.988 14.129C300.098 13.7843 300.153 13.4397 300.153 13.095C300.153 12.7283 300.094 12.3763 299.977 12.039C299.867 11.6943 299.702 11.39 299.482 11.126C299.262 10.8547 298.998 10.642 298.69 10.488C298.389 10.334 298.052 10.257 297.678 10.257C297.282 10.257 296.93 10.3377 296.622 10.499C296.314 10.6603 296.054 10.8767 295.841 11.148C295.628 11.4193 295.463 11.7237 295.346 12.061C295.236 12.3983 295.181 12.743 295.181 13.095ZM302.704 17V9.19H307.357V10.279H303.936V17H302.704ZM308.571 17V9.19H309.803V15.262L313.972 9.19H315.127V17H313.895V11.027L309.77 17H308.571ZM321.25 17V13.843C321.14 13.887 320.997 13.942 320.821 14.008C320.645 14.0667 320.436 14.118 320.194 14.162C319.959 14.206 319.688 14.228 319.38 14.228C318.492 14.228 317.832 14.03 317.4 13.634C316.967 13.238 316.751 12.6073 316.751 11.742V9.19H317.95V11.61C317.95 12.1233 318.078 12.501 318.335 12.743C318.591 12.985 319.024 13.106 319.633 13.106C319.919 13.106 320.208 13.073 320.502 13.007C320.802 12.941 321.052 12.8567 321.25 12.754V9.19H322.46V17H321.25ZM329.567 15.911V17H324.21V9.19H329.468V10.279H325.442V12.501H328.929V13.524H325.442V15.911H329.567ZM330.203 13.04C330.203 12.5633 330.288 12.0977 330.456 11.643C330.625 11.181 330.871 10.763 331.193 10.389C331.523 10.0077 331.923 9.707 332.392 9.487C332.862 9.25967 333.393 9.146 333.987 9.146C334.691 9.146 335.3 9.30733 335.813 9.63C336.327 9.94533 336.708 10.3523 336.957 10.851L335.989 11.5C335.843 11.1847 335.656 10.9353 335.428 10.752C335.208 10.5687 334.966 10.4403 334.702 10.367C334.446 10.2937 334.193 10.257 333.943 10.257C333.533 10.257 333.173 10.3413 332.865 10.51C332.557 10.6713 332.297 10.8877 332.084 11.159C331.879 11.4303 331.721 11.7347 331.611 12.072C331.509 12.4093 331.457 12.7467 331.457 13.084C331.457 13.458 331.52 13.821 331.644 14.173C331.769 14.5177 331.941 14.8257 332.161 15.097C332.389 15.361 332.656 15.57 332.964 15.724C333.272 15.878 333.61 15.955 333.976 15.955C334.226 15.955 334.486 15.911 334.757 15.823C335.029 15.735 335.278 15.5993 335.505 15.416C335.74 15.2253 335.923 14.976 336.055 14.668L337.078 15.251C336.917 15.6397 336.664 15.9697 336.319 16.241C335.982 16.5123 335.601 16.7177 335.175 16.857C334.757 16.9963 334.343 17.066 333.932 17.066C333.382 17.066 332.88 16.9523 332.425 16.725C331.971 16.4903 331.578 16.1823 331.248 15.801C330.918 15.4123 330.662 14.9797 330.478 14.503C330.295 14.019 330.203 13.5313 330.203 13.04ZM338.229 17V9.19H339.461V12.457H340.374L342.827 9.19H344.235L341.364 12.974L344.444 17H342.937L340.374 13.59H339.461V17H338.229ZM345.631 17V9.19H346.863V15.262L351.032 9.19H352.187V17H350.955V11.027L346.83 17H345.631ZM359.355 15.911V17H353.998V9.19H359.256V10.279H355.23V12.501H358.717V13.524H355.23V15.911H359.355ZM239.447 29V23.434L237.148 27.658H236.422L234.112 23.434V29H232.88V21.19H234.2L236.785 25.964L239.37 21.19H240.69V29H239.447ZM244.706 21.19H245.872L248.908 29H247.61L246.785 26.877H243.771L242.957 29H241.648L244.706 21.19ZM246.543 25.964L245.289 22.543L243.991 25.964H246.543ZM254.885 22.279H252.289V29H251.046V22.279H248.439V21.19H254.885V22.279ZM261.29 27.911V29H255.933V21.19H261.191V22.279H257.165V24.501H260.652V25.524H257.165V27.911H261.29ZM262.561 29V21.19H265.839C266.191 21.19 266.513 21.2633 266.807 21.41C267.1 21.5567 267.357 21.751 267.577 21.993C267.797 22.235 267.965 22.5063 268.083 22.807C268.2 23.1077 268.259 23.4157 268.259 23.731C268.259 24.1637 268.16 24.578 267.962 24.974C267.771 25.3627 267.496 25.678 267.137 25.92C266.785 26.162 266.374 26.283 265.905 26.283H263.793V29H262.561ZM263.793 25.194H265.828C266.062 25.194 266.268 25.1317 266.444 25.007C266.62 24.875 266.755 24.699 266.851 24.479C266.953 24.259 267.005 24.0097 267.005 23.731C267.005 23.445 266.946 23.192 266.829 22.972C266.711 22.752 266.557 22.5833 266.367 22.466C266.183 22.3413 265.982 22.279 265.762 22.279H263.793V25.194ZM269.469 29V21.19H270.701V27.262L274.87 21.19H276.025V29H274.793V23.027L270.668 29H269.469ZM280.091 21.19H281.257L284.293 29H282.995L282.17 26.877H279.156L278.342 29H277.033L280.091 21.19ZM281.928 25.964L280.674 22.543L279.376 25.964H281.928ZM290.33 29V22.279H287.723L287.679 23.731C287.635 24.7797 287.551 25.6487 287.426 26.338C287.301 27.02 287.122 27.559 286.887 27.955C286.652 28.3437 286.359 28.6223 286.007 28.791C285.655 28.9523 285.233 29.033 284.742 29.033V27.955C285.013 27.955 285.252 27.8927 285.457 27.768C285.662 27.636 285.835 27.405 285.974 27.075C286.121 26.745 286.234 26.283 286.315 25.689C286.403 25.0877 286.462 24.3213 286.491 23.39L286.568 21.19H291.573V29H290.33ZM293.337 29V21.19H294.569V24.072H296.318C296.89 24.072 297.37 24.1747 297.759 24.38C298.155 24.578 298.452 24.8603 298.65 25.227C298.855 25.5937 298.958 26.0263 298.958 26.525C298.958 26.9943 298.859 27.4197 298.661 27.801C298.463 28.175 298.173 28.4683 297.792 28.681C297.411 28.8937 296.945 29 296.395 29H293.337ZM294.569 27.977H296.219C296.564 27.977 296.846 27.911 297.066 27.779C297.286 27.647 297.444 27.471 297.539 27.251C297.642 27.0237 297.693 26.7817 297.693 26.525C297.693 26.2757 297.645 26.041 297.55 25.821C297.462 25.601 297.308 25.425 297.088 25.293C296.875 25.161 296.582 25.095 296.208 25.095H294.569V27.977ZM300.19 29V21.201H301.433V29H300.19Z" fill="#223D4E"/>
<path fill-rule="evenodd" clip-rule="evenodd" d="M20.147 12.0741C26.0265 9.40497 33.0151 11.8818 35.7561 17.6056C38.4972 23.3295 35.9542 30.1337 30.0748 32.8016C25.6213 34.8225 10.6592 34.3764 3.66335 34.0411C2.08011 33.9652 1.25927 32.1748 2.2337 30.9246C6.48442 25.4712 15.7081 14.0883 20.147 12.0741Z" fill="#4F43A7"/>
<path fill-rule="evenodd" clip-rule="evenodd" d="M18.7103 22.2577C12.8308 24.9268 5.84221 22.45 3.10116 16.7261C0.360099 11.0023 2.90308 4.19805 8.78252 1.53012C13.2359 -0.490723 28.1978 -0.0446196 35.1938 0.290664C36.777 0.366544 37.5979 2.15705 36.6234 3.4072C32.3725 8.86037 23.1492 20.2422 18.7103 22.2577Z" fill="#52B39D"/>
</svg>
