<svg width="327" height="32" viewBox="0 0 327 32" fill="none" xmlns="http://www.w3.org/2000/svg">
<path d="M56.8978 12.0825C56.8471 11.998 56.6696 11.8712 56.3654 11.7022C56.0611 11.5163 55.6808 11.3219 55.2244 11.119C54.768 10.9162 54.2693 10.7387 53.7284 10.5866C53.1875 10.4344 52.6466 10.3584 52.1056 10.3584C51.3957 10.3584 50.8463 10.4851 50.4575 10.7387C50.0687 10.9754 49.8743 11.3472 49.8743 11.8543C49.8743 12.26 50.018 12.5812 50.3054 12.8179C50.6097 13.0545 51.0407 13.2658 51.5985 13.4517C52.1563 13.6208 52.8409 13.8236 53.6523 14.0603C54.8018 14.3645 55.7991 14.7364 56.6443 15.1759C57.4895 15.5985 58.1318 16.1479 58.5713 16.824C59.0277 17.5002 59.2559 18.3961 59.2559 19.5117C59.2559 20.5259 59.07 21.388 58.6981 22.098C58.3262 22.791 57.8191 23.3573 57.1767 23.7968C56.5513 24.2194 55.8329 24.5321 55.0215 24.735C54.2101 24.9209 53.3734 25.0139 52.5113 25.0139C51.6323 25.0139 50.728 24.9294 49.7983 24.7603C48.8855 24.5744 48.0065 24.3208 47.1613 23.9997C46.3161 23.6616 45.5385 23.2559 44.8286 22.7826L46.6542 19.1567C46.7218 19.2413 46.9416 19.4018 47.3134 19.6385C47.6853 19.8582 48.1417 20.0949 48.6826 20.3485C49.2405 20.5851 49.8574 20.7964 50.5336 20.9823C51.2097 21.1683 51.8943 21.2613 52.5874 21.2613C53.3312 21.2613 53.8805 21.1429 54.2355 20.9063C54.6074 20.6696 54.7933 20.34 54.7933 19.9174C54.7933 19.461 54.5989 19.106 54.2101 18.8525C53.8383 18.5989 53.3227 18.3707 52.6635 18.1679C52.0211 17.965 51.2774 17.7368 50.4322 17.4833C49.3334 17.1452 48.4206 16.7649 47.6938 16.3423C46.9838 15.9197 46.4513 15.4041 46.0964 14.7956C45.7583 14.1871 45.5893 13.4264 45.5893 12.5136C45.5893 11.2458 45.8851 10.1809 46.4767 9.31879C47.0852 8.4398 47.8966 7.78055 48.9108 7.34106C49.9251 6.88466 51.0323 6.65646 52.2324 6.65646C53.0776 6.65646 53.889 6.75788 54.6665 6.96072C55.461 7.16357 56.1963 7.41712 56.8725 7.72139C57.5655 8.02566 58.1825 8.32992 58.7234 8.63419L56.8978 12.0825ZM75.4133 10.4598H69.9365V24.811H65.7782V10.4598H60.2761V6.80859H75.4133V10.4598ZM84.9831 24.9632C83.6308 24.9632 82.4053 24.7096 81.3065 24.2025C80.2247 23.6785 79.2865 22.9854 78.4921 22.1233C77.7145 21.2444 77.1144 20.2639 76.6918 19.1821C76.2692 18.0834 76.0579 16.9508 76.0579 15.7845C76.0579 14.5843 76.2777 13.4433 76.7172 12.3615C77.1736 11.2796 77.799 10.3161 78.5935 9.47092C79.4049 8.60884 80.3599 7.93269 81.4587 7.44248C82.5574 6.95227 83.7576 6.70717 85.0591 6.70717C86.3945 6.70717 87.6031 6.96918 88.685 7.49319C89.7837 8.0003 90.7219 8.69335 91.4995 9.57235C92.2939 10.4513 92.9025 11.4402 93.3251 12.5389C93.7476 13.6208 93.9589 14.728 93.9589 15.8605C93.9589 17.0607 93.7392 18.2017 93.2997 19.2835C92.8602 20.3654 92.2348 21.3373 91.4234 22.1994C90.612 23.0446 89.6569 23.7207 88.5582 24.2279C87.4764 24.7181 86.2847 24.9632 84.9831 24.9632ZM80.2923 15.8352C80.2923 16.5282 80.3937 17.2044 80.5966 17.8636C80.7994 18.506 81.0952 19.0807 81.484 19.5878C81.8897 20.0949 82.3884 20.5006 82.98 20.8049C83.5716 21.1091 84.2478 21.2613 85.0084 21.2613C85.8029 21.2613 86.496 21.1091 87.0876 20.8049C87.6792 20.4837 88.1694 20.0611 88.5582 19.5371C88.947 19.0131 89.2344 18.4299 89.4203 17.7875C89.6231 17.1283 89.7246 16.4606 89.7246 15.7845C89.7246 15.0914 89.6231 14.4237 89.4203 13.7814C89.2175 13.139 88.9132 12.5643 88.5075 12.0572C88.1018 11.5332 87.6031 11.1275 87.0115 10.8401C86.4199 10.5528 85.7522 10.4091 85.0084 10.4091C84.214 10.4091 83.5209 10.5612 82.9293 10.8655C82.3545 11.1697 81.8643 11.5839 81.4587 12.1079C81.0699 12.615 80.7741 13.1982 80.5712 13.8574C80.3853 14.4998 80.2923 15.159 80.2923 15.8352ZM110.561 24.811V14.0856L106.681 21.8951H104.399L100.52 14.0856V24.811H96.3618V6.80859H100.875L105.54 16.2155L110.231 6.80859H114.719V24.811H110.561ZM122.715 6.80859H127.203L133.39 24.811H129.13L127.736 20.7795H122.132L120.763 24.811H116.503L122.715 6.80859ZM127.051 17.9143L124.946 10.9923L122.791 17.9143H127.051ZM147.221 10.4598H141.744V24.811H137.586V10.4598H132.084V6.80859H147.221V10.4598Z" fill="#223D4E"/>
<path d="M148.897 24.811V20.6781H152.218V24.811H148.897ZM155.318 24.811V6.80859H163.001C163.863 6.80859 164.649 6.98608 165.359 7.34106C166.086 7.67913 166.711 8.14398 167.236 8.73561C167.76 9.31034 168.165 9.96113 168.453 10.688C168.74 11.4149 168.884 12.1586 168.884 12.9193C168.884 13.9504 168.639 14.9308 168.148 15.8605C167.675 16.7902 167.007 17.5509 166.145 18.1425C165.3 18.7172 164.294 19.0046 163.128 19.0046H159.477V24.811H155.318ZM159.477 15.3788H162.874C163.196 15.3788 163.491 15.2858 163.762 15.0999C164.032 14.9139 164.252 14.635 164.421 14.2631C164.59 13.8912 164.675 13.4348 164.675 12.8939C164.675 12.3361 164.573 11.8797 164.37 11.5247C164.184 11.1528 163.939 10.8824 163.635 10.7133C163.348 10.5443 163.043 10.4598 162.722 10.4598H159.477V15.3788ZM171.116 24.811V6.80859H179.23C180.075 6.80859 180.853 6.98608 181.563 7.34106C182.289 7.67913 182.915 8.14398 183.439 8.73561C183.963 9.31034 184.369 9.96113 184.656 10.688C184.96 11.4149 185.112 12.1502 185.112 12.8939C185.112 13.6377 184.994 14.3476 184.757 15.0238C184.521 15.683 184.183 16.2831 183.743 16.824C183.304 17.348 182.78 17.7791 182.171 18.1172L186.127 24.811H181.537L178.089 19.0046H175.274V24.811H171.116ZM175.274 15.3788H179.078C179.416 15.3788 179.712 15.2773 179.965 15.0745C180.236 14.8548 180.455 14.5589 180.624 14.1871C180.793 13.8152 180.878 13.3841 180.878 12.8939C180.878 12.4037 180.777 11.9811 180.574 11.6261C180.388 11.2543 180.151 10.9669 179.864 10.7641C179.576 10.5612 179.272 10.4598 178.951 10.4598H175.274V15.3788ZM195.815 24.9632C194.462 24.9632 193.237 24.7096 192.138 24.2025C191.056 23.6785 190.118 22.9854 189.324 22.1233C188.546 21.2444 187.946 20.2639 187.523 19.1821C187.101 18.0834 186.889 16.9508 186.889 15.7845C186.889 14.5843 187.109 13.4433 187.549 12.3615C188.005 11.2796 188.631 10.3161 189.425 9.47092C190.236 8.60884 191.191 7.93269 192.29 7.44248C193.389 6.95227 194.589 6.70717 195.891 6.70717C197.226 6.70717 198.435 6.96918 199.516 7.49319C200.615 8.0003 201.553 8.69335 202.331 9.57235C203.125 10.4513 203.734 11.4402 204.157 12.5389C204.579 13.6208 204.79 14.728 204.79 15.8605C204.79 17.0607 204.571 18.2017 204.131 19.2835C203.692 20.3654 203.066 21.3373 202.255 22.1994C201.444 23.0446 200.488 23.7207 199.39 24.2279C198.308 24.7181 197.116 24.9632 195.815 24.9632ZM191.124 15.8352C191.124 16.5282 191.225 17.2044 191.428 17.8636C191.631 18.506 191.927 19.0807 192.316 19.5878C192.721 20.0949 193.22 20.5006 193.811 20.8049C194.403 21.1091 195.079 21.2613 195.84 21.2613C196.634 21.2613 197.327 21.1091 197.919 20.8049C198.511 20.4837 199.001 20.0611 199.39 19.5371C199.778 19.0131 200.066 18.4299 200.252 17.7875C200.455 17.1283 200.556 16.4606 200.556 15.7845C200.556 15.0914 200.455 14.4237 200.252 13.7814C200.049 13.139 199.745 12.5643 199.339 12.0572C198.933 11.5332 198.435 11.1275 197.843 10.8401C197.251 10.5528 196.584 10.4091 195.84 10.4091C195.045 10.4091 194.352 10.5612 193.761 10.8655C193.186 11.1697 192.696 11.5839 192.29 12.1079C191.901 12.615 191.606 13.1982 191.403 13.8574C191.217 14.4998 191.124 15.159 191.124 15.8352Z" fill="#52B39D"/>
<path d="M210.438 10.7529C210.438 10.3212 210.514 9.89953 210.667 9.48781C210.819 9.06944 211.042 8.69092 211.334 8.35224C211.633 8.00692 211.995 7.73465 212.42 7.53543C212.845 7.32956 213.326 7.22663 213.864 7.22663C214.502 7.22663 215.053 7.37273 215.518 7.66492C215.983 7.95047 216.328 8.31904 216.554 8.77061L215.677 9.35831C215.544 9.07276 215.375 8.84697 215.169 8.68096C214.97 8.51494 214.751 8.39872 214.512 8.33232C214.279 8.26591 214.05 8.23271 213.824 8.23271C213.452 8.23271 213.127 8.30907 212.848 8.46181C212.569 8.60791 212.333 8.80381 212.141 9.04952C211.955 9.29522 211.812 9.57082 211.713 9.87629C211.62 10.1818 211.573 10.4872 211.573 10.7927C211.573 11.1314 211.63 11.4601 211.742 11.7789C211.855 12.091 212.011 12.3699 212.211 12.6156C212.416 12.8547 212.659 13.0439 212.938 13.1834C213.217 13.3228 213.522 13.3926 213.854 13.3926C214.08 13.3926 214.316 13.3527 214.561 13.273C214.807 13.1933 215.033 13.0705 215.239 12.9045C215.451 12.7318 215.617 12.506 215.737 12.2271L216.663 12.7551C216.517 13.107 216.288 13.4058 215.976 13.6516C215.67 13.8973 215.325 14.0832 214.94 14.2094C214.561 14.3355 214.186 14.3986 213.814 14.3986C213.316 14.3986 212.861 14.2957 212.45 14.0898C212.038 13.8773 211.683 13.5984 211.384 13.2531C211.085 12.9011 210.853 12.5093 210.687 12.0777C210.521 11.6394 210.438 11.1978 210.438 10.7529ZM222.885 8.25263H220.534V14.3389H219.408V8.25263H217.048V7.26648H222.885V8.25263ZM226.577 14.3887C226.066 14.3887 225.604 14.2891 225.193 14.0898C224.781 13.8906 224.426 13.6217 224.127 13.283C223.828 12.9377 223.596 12.5525 223.43 12.1275C223.27 11.6959 223.19 11.2542 223.19 10.8027C223.19 10.3312 223.277 9.88293 223.449 9.45792C223.622 9.02627 223.861 8.64443 224.167 8.31239C224.472 7.97372 224.831 7.70809 225.242 7.51551C225.661 7.31628 226.112 7.21667 226.597 7.21667C227.102 7.21667 227.56 7.3196 227.972 7.52547C228.39 7.73133 228.745 8.00692 229.038 8.35224C229.336 8.69756 229.566 9.08272 229.725 9.50773C229.891 9.93274 229.974 10.3677 229.974 10.8126C229.974 11.2841 229.888 11.7357 229.715 12.1673C229.549 12.5924 229.313 12.9742 229.008 13.3129C228.702 13.6449 228.34 13.9072 227.922 14.0998C227.51 14.2924 227.062 14.3887 226.577 14.3887ZM224.326 10.8027C224.326 11.1347 224.379 11.4568 224.485 11.7689C224.592 12.081 224.741 12.3599 224.934 12.6056C225.133 12.8447 225.372 13.034 225.651 13.1734C225.93 13.3129 226.242 13.3826 226.587 13.3826C226.946 13.3826 227.265 13.3096 227.543 13.1635C227.822 13.0174 228.055 12.8215 228.241 12.5758C228.433 12.3234 228.579 12.0445 228.679 11.739C228.779 11.4269 228.828 11.1148 228.828 10.8027C228.828 10.4706 228.775 10.1519 228.669 9.84641C228.569 9.53429 228.42 9.2587 228.221 9.01963C228.022 8.77393 227.783 8.58134 227.504 8.44189C227.231 8.30243 226.926 8.23271 226.587 8.23271C226.229 8.23271 225.91 8.30575 225.631 8.45185C225.352 8.59795 225.116 8.79385 224.924 9.03956C224.731 9.28526 224.582 9.56085 224.475 9.86633C224.376 10.1718 224.326 10.4839 224.326 10.8027ZM237.076 14.3389V9.29854L234.994 13.1236H234.336L232.245 9.29854V14.3389H231.129V7.26648H232.324L234.665 11.5896L237.006 7.26648H238.201V14.3389H237.076ZM241.838 7.26648H242.894L245.643 14.3389H244.468L243.721 12.4164H240.992L240.255 14.3389H239.069L241.838 7.26648ZM243.502 11.5896L242.366 8.49169L241.191 11.5896H243.502ZM251.056 8.25263H248.705V14.3389H247.58V8.25263H245.219V7.26648H251.056V8.25263ZM254.748 14.3887C254.237 14.3887 253.776 14.2891 253.364 14.0898C252.952 13.8906 252.597 13.6217 252.298 13.283C251.999 12.9377 251.767 12.5525 251.601 12.1275C251.441 11.6959 251.362 11.2542 251.362 10.8027C251.362 10.3312 251.448 9.88293 251.621 9.45792C251.793 9.02627 252.032 8.64443 252.338 8.31239C252.643 7.97372 253.002 7.70809 253.414 7.51551C253.832 7.31628 254.284 7.21667 254.768 7.21667C255.273 7.21667 255.731 7.3196 256.143 7.52547C256.561 7.73133 256.917 8.00692 257.209 8.35224C257.508 8.69756 257.737 9.08272 257.896 9.50773C258.062 9.93274 258.145 10.3677 258.145 10.8126C258.145 11.2841 258.059 11.7357 257.886 12.1673C257.72 12.5924 257.484 12.9742 257.179 13.3129C256.874 13.6449 256.512 13.9072 256.093 14.0998C255.682 14.2924 255.233 14.3887 254.748 14.3887ZM252.497 10.8027C252.497 11.1347 252.55 11.4568 252.657 11.7689C252.763 12.081 252.912 12.3599 253.105 12.6056C253.304 12.8447 253.543 13.034 253.822 13.1734C254.101 13.3129 254.413 13.3826 254.758 13.3826C255.117 13.3826 255.436 13.3096 255.715 13.1635C255.994 13.0174 256.226 12.8215 256.412 12.5758C256.605 12.3234 256.751 12.0445 256.85 11.739C256.95 11.4269 257 11.1148 257 10.8027C257 10.4706 256.947 10.1519 256.84 9.84641C256.741 9.53429 256.591 9.2587 256.392 9.01963C256.193 8.77393 255.954 8.58134 255.675 8.44189C255.403 8.30243 255.097 8.23271 254.758 8.23271C254.4 8.23271 254.081 8.30575 253.802 8.45185C253.523 8.59795 253.288 8.79385 253.095 9.03956C252.902 9.28526 252.753 9.56085 252.647 9.86633C252.547 10.1718 252.497 10.4839 252.497 10.8027ZM263.892 14.3389V8.25263H261.532L261.492 9.56749C261.452 10.5171 261.375 11.304 261.263 11.9283C261.15 12.5459 260.987 13.034 260.775 13.3926C260.562 13.7445 260.296 13.9969 259.978 14.1496C259.659 14.2957 259.277 14.3688 258.832 14.3688V13.3926C259.078 13.3926 259.294 13.3361 259.48 13.2232C259.665 13.1037 259.822 12.8945 259.948 12.5957C260.081 12.2968 260.183 11.8785 260.257 11.3406C260.336 10.796 260.389 10.1021 260.416 9.2587L260.486 7.26648H265.018V14.3389H263.892ZM269.554 14.3887C269.043 14.3887 268.581 14.2891 268.169 14.0898C267.758 13.8906 267.402 13.6217 267.104 13.283C266.805 12.9377 266.572 12.5525 266.406 12.1275C266.247 11.6959 266.167 11.2542 266.167 10.8027C266.167 10.3312 266.254 9.88293 266.426 9.45792C266.599 9.02627 266.838 8.64443 267.143 8.31239C267.449 7.97372 267.807 7.70809 268.219 7.51551C268.638 7.31628 269.089 7.21667 269.574 7.21667C270.079 7.21667 270.537 7.3196 270.949 7.52547C271.367 7.73133 271.722 8.00692 272.014 8.35224C272.313 8.69756 272.542 9.08272 272.702 9.50773C272.868 9.93274 272.951 10.3677 272.951 10.8126C272.951 11.2841 272.864 11.7357 272.692 12.1673C272.526 12.5924 272.29 12.9742 271.984 13.3129C271.679 13.6449 271.317 13.9072 270.899 14.0998C270.487 14.2924 270.039 14.3887 269.554 14.3887ZM267.303 10.8027C267.303 11.1347 267.356 11.4568 267.462 11.7689C267.568 12.081 267.718 12.3599 267.91 12.6056C268.11 12.8447 268.349 13.034 268.628 13.1734C268.907 13.3129 269.219 13.3826 269.564 13.3826C269.923 13.3826 270.241 13.3096 270.52 13.1635C270.799 13.0174 271.032 12.8215 271.217 12.5758C271.41 12.3234 271.556 12.0445 271.656 11.739C271.755 11.4269 271.805 11.1148 271.805 10.8027C271.805 10.4706 271.752 10.1519 271.646 9.84641C271.546 9.53429 271.397 9.2587 271.198 9.01963C270.998 8.77393 270.759 8.58134 270.48 8.44189C270.208 8.30243 269.903 8.23271 269.564 8.23271C269.205 8.23271 268.887 8.30575 268.608 8.45185C268.329 8.59795 268.093 8.79385 267.9 9.03956C267.708 9.28526 267.558 9.56085 267.452 9.86633C267.353 10.1718 267.303 10.4839 267.303 10.8027ZM274.116 14.3389V7.26648H278.329V8.25263H275.231V14.3389H274.116ZM279.428 14.3389V7.26648H280.544V12.765L284.319 7.26648H285.365V14.3389H284.249V8.92998L280.514 14.3389H279.428ZM290.909 14.3389V11.48C290.81 11.5199 290.68 11.5697 290.521 11.6294C290.361 11.6826 290.172 11.7291 289.953 11.7689C289.741 11.8087 289.495 11.8287 289.216 11.8287C288.412 11.8287 287.815 11.6494 287.423 11.2908C287.031 10.9322 286.835 10.3611 286.835 9.57746V7.26648H287.921V9.45792C287.921 9.92277 288.037 10.2648 288.27 10.4839C288.502 10.7031 288.894 10.8126 289.445 10.8126C289.704 10.8126 289.966 10.7828 290.232 10.723C290.504 10.6632 290.73 10.5868 290.909 10.4939V7.26648H292.005V14.3389H290.909ZM298.441 13.3527V14.3389H293.59V7.26648H298.352V8.25263H294.706V10.2648H297.864V11.1912H294.706V13.3527H298.441ZM299.017 10.7529C299.017 10.3212 299.094 9.89953 299.247 9.48781C299.399 9.06944 299.622 8.69092 299.914 8.35224C300.213 8.00692 300.575 7.73465 301 7.53543C301.425 7.32956 301.906 7.22663 302.444 7.22663C303.082 7.22663 303.633 7.37273 304.098 7.66492C304.562 7.95047 304.908 8.31904 305.134 8.77061L304.257 9.35831C304.124 9.07276 303.955 8.84697 303.749 8.68096C303.55 8.51494 303.331 8.39872 303.092 8.33232C302.859 8.26591 302.63 8.23271 302.404 8.23271C302.032 8.23271 301.707 8.30907 301.428 8.46181C301.149 8.60791 300.913 8.80381 300.721 9.04952C300.535 9.29522 300.392 9.57082 300.292 9.87629C300.2 10.1818 300.153 10.4872 300.153 10.7927C300.153 11.1314 300.209 11.4601 300.322 11.7789C300.435 12.091 300.591 12.3699 300.791 12.6156C300.996 12.8547 301.239 13.0439 301.518 13.1834C301.797 13.3228 302.102 13.3926 302.434 13.3926C302.66 13.3926 302.896 13.3527 303.141 13.273C303.387 13.1933 303.613 13.0705 303.819 12.9045C304.031 12.7318 304.197 12.506 304.317 12.2271L305.243 12.7551C305.097 13.107 304.868 13.4058 304.556 13.6516C304.25 13.8973 303.905 14.0832 303.52 14.2094C303.141 14.3355 302.766 14.3986 302.394 14.3986C301.896 14.3986 301.441 14.2957 301.03 14.0898C300.618 13.8773 300.263 13.5984 299.964 13.2531C299.665 12.9011 299.433 12.5093 299.266 12.0777C299.1 11.6394 299.017 11.1978 299.017 10.7529ZM306.285 14.3389V7.26648H307.401V10.2249H308.227L310.449 7.26648H311.724L309.124 10.6931L311.913 14.3389H310.548L308.227 11.2509H307.401V14.3389H306.285ZM312.988 14.3389V7.26648H314.104V12.765L317.879 7.26648H318.925V14.3389H317.809V8.92998L314.074 14.3389H312.988ZM325.416 13.3527V14.3389H320.565V7.26648H325.326V8.25263H321.681V10.2648H324.838V11.1912H321.681V13.3527H325.416ZM216.833 25.3389V20.2985L214.751 24.1236H214.093L212.001 20.2985V25.3389H210.886V18.2665H212.081L214.422 22.5896L216.763 18.2665H217.958V25.3389H216.833ZM221.595 18.2665H222.651L225.4 25.3389H224.225L223.478 23.4164H220.748L220.011 25.3389H218.826L221.595 18.2665ZM223.259 22.5896L222.123 19.4917L220.948 22.5896H223.259ZM230.813 19.2526H228.462V25.3389H227.336V19.2526H224.976V18.2665H230.813V19.2526ZM236.612 24.3527V25.3389H231.761V18.2665H236.523V19.2526H232.877V21.2648H236.035V22.1912H232.877V24.3527H236.612ZM237.763 25.3389V18.2665H240.732C241.05 18.2665 241.343 18.3329 241.608 18.4657C241.874 18.5985 242.106 18.7745 242.306 18.9936C242.505 19.2128 242.657 19.4585 242.764 19.7308C242.87 20.003 242.923 20.2819 242.923 20.5675C242.923 20.9593 242.833 21.3345 242.654 21.6931C242.481 22.0451 242.232 22.3306 241.907 22.5498C241.588 22.7689 241.216 22.8785 240.791 22.8785H238.879V25.3389H237.763ZM238.879 21.8923H240.722C240.934 21.8923 241.12 21.8359 241.28 21.723C241.439 21.6035 241.562 21.4441 241.648 21.2449C241.741 21.0456 241.788 20.8198 241.788 20.5675C241.788 20.3085 241.734 20.0794 241.628 19.8802C241.522 19.681 241.382 19.5282 241.21 19.422C241.044 19.3091 240.861 19.2526 240.662 19.2526H238.879V21.8923ZM244.019 25.3389V18.2665H245.135V23.765L248.91 18.2665H249.956V25.3389H248.84V19.93L245.105 25.3389H244.019ZM253.638 18.2665H254.694L257.443 25.3389H256.268L255.521 23.4164H252.791L252.054 25.3389H250.869L253.638 18.2665ZM255.301 22.5896L254.166 19.4917L252.991 22.5896H255.301ZM262.91 25.3389V19.2526H260.549L260.509 20.5675C260.469 21.5171 260.393 22.304 260.28 22.9283C260.167 23.5459 260.005 24.034 259.792 24.3926C259.58 24.7445 259.314 24.9969 258.995 25.1496C258.676 25.2957 258.295 25.3688 257.85 25.3688V24.3926C258.095 24.3926 258.311 24.3361 258.497 24.2232C258.683 24.1037 258.839 23.8945 258.965 23.5957C259.098 23.2968 259.201 22.8785 259.274 22.3406C259.354 21.796 259.407 21.1021 259.433 20.2587L259.503 18.2665H264.035V25.3389H262.91ZM265.633 25.3389V18.2665H266.749V20.8763H268.332C268.85 20.8763 269.285 20.9693 269.637 21.1552C269.996 21.3345 270.265 21.5902 270.444 21.9222C270.63 22.2542 270.723 22.646 270.723 23.0976C270.723 23.5226 270.633 23.9078 270.454 24.2531C270.275 24.5918 270.013 24.8574 269.667 25.05C269.322 25.2426 268.9 25.3389 268.402 25.3389H265.633ZM266.749 24.4125H268.243C268.555 24.4125 268.811 24.3527 269.01 24.2332C269.209 24.1137 269.352 23.9543 269.438 23.7551C269.531 23.5492 269.578 23.33 269.578 23.0976C269.578 22.8718 269.534 22.6593 269.448 22.4601C269.368 22.2609 269.229 22.1015 269.03 21.982C268.837 21.8624 268.571 21.8027 268.233 21.8027H266.749V24.4125ZM271.839 25.3389V18.2764H272.964V25.3389H271.839Z" fill="#223D4E"/>
<path fill-rule="evenodd" clip-rule="evenodd" d="M18.2442 10.9336C23.5684 8.51655 29.897 10.7595 32.3792 15.9427C34.8614 21.126 32.5585 27.2876 27.2344 29.7035C23.2015 31.5335 9.65248 31.1295 3.31737 30.8259C1.88365 30.7572 1.14033 29.1359 2.02274 28.0038C5.872 23.0654 14.2245 12.7576 18.2442 10.9336Z" fill="#4F43A7"/>
<path fill-rule="evenodd" clip-rule="evenodd" d="M16.9431 20.1556C11.6189 22.5726 5.29031 20.3297 2.80813 15.1464C0.325951 9.96319 2.62877 3.80157 7.95292 1.38561C11.9857 -0.444377 25.5346 -0.0404054 31.8698 0.263213C33.3035 0.331926 34.0468 1.95333 33.1643 3.08541C29.315 8.02356 20.9627 18.3304 16.9431 20.1556Z" fill="#52B39D"/>
</svg>
