<svg width="120" height="42" viewBox="0 0 120 42" fill="none" xmlns="http://www.w3.org/2000/svg">
<path fill-rule="evenodd" clip-rule="evenodd" d="M19.1841 15.5753C24.7825 12.9938 31.4371 15.3893 34.0472 20.9253C36.6572 26.4613 34.2358 33.0423 28.6374 35.6227C24.4269 37.5633 10.3516 37.1517 3.63133 36.8284C2.05577 36.7526 1.23186 34.9726 2.19269 33.7216C6.26888 28.4145 14.98 17.5129 19.1841 15.5753Z" fill="#4F43A7"/>
<path fill-rule="evenodd" clip-rule="evenodd" d="M17.8161 25.4247C12.2176 28.0062 5.56302 25.6107 2.95297 20.0747C0.342926 14.5387 2.76437 7.95773 8.3628 5.37734C12.5732 3.4367 26.6483 3.84827 33.3686 4.17164C34.9442 4.24745 35.7681 6.02751 34.8072 7.27848C30.7309 12.5853 22.02 23.4858 17.8161 25.4247Z" fill="#52B39D"/>
<path d="M51.3861 7.462C51.3481 7.39867 51.2151 7.30367 50.9871 7.177C50.7591 7.03767 50.4741 6.892 50.1321 6.74C49.7901 6.588 49.4165 6.455 49.0111 6.341C48.6058 6.227 48.2005 6.17 47.7951 6.17C47.2631 6.17 46.8515 6.265 46.5601 6.455C46.2688 6.63233 46.1231 6.911 46.1231 7.291C46.1231 7.595 46.2308 7.83567 46.4461 8.013C46.6741 8.19033 46.9971 8.34867 47.4151 8.488C47.8331 8.61467 48.3461 8.76667 48.9541 8.944C49.8155 9.172 50.5628 9.45067 51.1961 9.78C51.8295 10.0967 52.3108 10.5083 52.6401 11.015C52.9821 11.5217 53.1531 12.193 53.1531 13.029C53.1531 13.789 53.0138 14.435 52.7351 14.967C52.4565 15.4863 52.0765 15.9107 51.5951 16.24C51.1265 16.5567 50.5881 16.791 49.9801 16.943C49.3721 17.0823 48.7451 17.152 48.0991 17.152C47.4405 17.152 46.7628 17.0887 46.0661 16.962C45.3821 16.8227 44.7235 16.6327 44.0901 16.392C43.4568 16.1387 42.8741 15.8347 42.3421 15.48L43.7101 12.763C43.7608 12.8263 43.9255 12.9467 44.2041 13.124C44.4828 13.2887 44.8248 13.466 45.2301 13.656C45.6481 13.8333 46.1105 13.9917 46.6171 14.131C47.1238 14.2703 47.6368 14.34 48.1561 14.34C48.7135 14.34 49.1251 14.2513 49.3911 14.074C49.6698 13.8967 49.8091 13.6497 49.8091 13.333C49.8091 12.991 49.6635 12.725 49.3721 12.535C49.0935 12.345 48.7071 12.174 48.2131 12.022C47.7318 11.87 47.1745 11.699 46.5411 11.509C45.7178 11.2557 45.0338 10.9707 44.4891 10.654C43.9571 10.3373 43.5581 9.951 43.2921 9.495C43.0388 9.039 42.9121 8.469 42.9121 7.785C42.9121 6.835 43.1338 6.037 43.5771 5.391C44.0331 4.73233 44.6411 4.23833 45.4011 3.909C46.1611 3.567 46.9908 3.396 47.8901 3.396C48.5235 3.396 49.1315 3.472 49.7141 3.624C50.3095 3.776 50.8605 3.966 51.3671 4.194C51.8865 4.422 52.3488 4.65 52.7541 4.878L51.3861 7.462ZM65.2606 6.246H61.1566V17H58.0406V6.246H53.9176V3.51H65.2606V6.246ZM72.4316 17.114C71.4183 17.114 70.4999 16.924 69.6766 16.544C68.8659 16.1513 68.1629 15.632 67.5676 14.986C66.9849 14.3273 66.5353 13.5927 66.2186 12.782C65.9019 11.9587 65.7436 11.11 65.7436 10.236C65.7436 9.33667 65.9083 8.48167 66.2376 7.671C66.5796 6.86033 67.0483 6.13833 67.6436 5.505C68.2516 4.859 68.9673 4.35233 69.7906 3.985C70.6139 3.61767 71.5133 3.434 72.4886 3.434C73.4893 3.434 74.3949 3.63033 75.2056 4.023C76.0289 4.403 76.7319 4.92233 77.3146 5.581C77.9099 6.23967 78.3659 6.98067 78.6826 7.804C78.9993 8.61467 79.1576 9.44433 79.1576 10.293C79.1576 11.1923 78.9929 12.0473 78.6636 12.858C78.3343 13.6687 77.8656 14.397 77.2576 15.043C76.6496 15.6763 75.9339 16.183 75.1106 16.563C74.2999 16.9303 73.4069 17.114 72.4316 17.114ZM68.9166 10.274C68.9166 10.7933 68.9926 11.3 69.1446 11.794C69.2966 12.2753 69.5183 12.706 69.8096 13.086C70.1136 13.466 70.4873 13.77 70.9306 13.998C71.3739 14.226 71.8806 14.34 72.4506 14.34C73.0459 14.34 73.5653 14.226 74.0086 13.998C74.4519 13.7573 74.8193 13.4407 75.1106 13.048C75.4019 12.6553 75.6173 12.2183 75.7566 11.737C75.9086 11.243 75.9846 10.7427 75.9846 10.236C75.9846 9.71667 75.9086 9.21633 75.7566 8.735C75.6046 8.25367 75.3766 7.823 75.0726 7.443C74.7686 7.05033 74.3949 6.74633 73.9516 6.531C73.5083 6.31567 73.0079 6.208 72.4506 6.208C71.8553 6.208 71.3359 6.322 70.8926 6.55C70.4619 6.778 70.0946 7.08833 69.7906 7.481C69.4993 7.861 69.2776 8.298 69.1256 8.792C68.9863 9.27333 68.9166 9.76733 68.9166 10.274ZM91.5981 17V8.963L88.6911 14.815H86.9811L84.0741 8.963V17H80.9581V3.51H84.3401L87.8361 10.559L91.3511 3.51H94.7141V17H91.5981ZM100.706 3.51H104.069L108.705 17H105.513L104.468 13.979H100.269L99.2428 17H96.0508L100.706 3.51ZM103.955 11.832L102.378 6.645L100.763 11.832H103.955ZM119.069 6.246H114.965V17H111.849V6.246H107.726V3.51H119.069V6.246Z" fill="#223D4E"/>
<path d="M43.0261 38V34.903H45.5151V38H43.0261ZM47.838 38V24.51H53.595C54.241 24.51 54.83 24.643 55.362 24.909C55.9067 25.1623 56.3754 25.5107 56.768 25.954C57.1607 26.3847 57.4647 26.8723 57.68 27.417C57.8954 27.9617 58.003 28.519 58.003 29.089C58.003 29.8617 57.8194 30.5963 57.452 31.293C57.0974 31.9897 56.597 32.5597 55.951 33.003C55.3177 33.4337 54.564 33.649 53.69 33.649H50.954V38H47.838ZM50.954 30.932H53.5C53.7407 30.932 53.9624 30.8623 54.165 30.723C54.3677 30.5837 54.5324 30.3747 54.659 30.096C54.7857 29.8173 54.849 29.4753 54.849 29.07C54.849 28.652 54.773 28.31 54.621 28.044C54.4817 27.7653 54.298 27.5627 54.07 27.436C53.8547 27.3093 53.6267 27.246 53.386 27.246H50.954V30.932ZM59.6759 38V24.51H65.7559C66.3892 24.51 66.9719 24.643 67.5039 24.909C68.0486 25.1623 68.5172 25.5107 68.9099 25.954C69.3026 26.3847 69.6066 26.8723 69.8219 27.417C70.0499 27.9617 70.1639 28.5127 70.1639 29.07C70.1639 29.6273 70.0752 30.1593 69.8979 30.666C69.7206 31.16 69.4672 31.6097 69.1379 32.015C68.8086 32.4077 68.4159 32.7307 67.9599 32.984L70.9239 38H67.4849L64.9009 33.649H62.7919V38H59.6759ZM62.7919 30.932H65.6419C65.8952 30.932 66.1169 30.856 66.3069 30.704C66.5096 30.5393 66.6742 30.3177 66.8009 30.039C66.9276 29.7603 66.9909 29.4373 66.9909 29.07C66.9909 28.7027 66.9149 28.386 66.7629 28.12C66.6236 27.8413 66.4462 27.626 66.2309 27.474C66.0156 27.322 65.7876 27.246 65.5469 27.246H62.7919V30.932ZM78.1835 38.114C77.1702 38.114 76.2519 37.924 75.4285 37.544C74.6179 37.1513 73.9149 36.632 73.3195 35.986C72.7369 35.3273 72.2872 34.5927 71.9705 33.782C71.6539 32.9587 71.4955 32.11 71.4955 31.236C71.4955 30.3367 71.6602 29.4817 71.9895 28.671C72.3315 27.8603 72.8002 27.1383 73.3955 26.505C74.0035 25.859 74.7192 25.3523 75.5425 24.985C76.3659 24.6177 77.2652 24.434 78.2405 24.434C79.2412 24.434 80.1469 24.6303 80.9575 25.023C81.7809 25.403 82.4839 25.9223 83.0665 26.581C83.6619 27.2397 84.1179 27.9807 84.4345 28.804C84.7512 29.6147 84.9095 30.4443 84.9095 31.293C84.9095 32.1923 84.7449 33.0473 84.4155 33.858C84.0862 34.6687 83.6175 35.397 83.0095 36.043C82.4015 36.6763 81.6859 37.183 80.8625 37.563C80.0519 37.9303 79.1589 38.114 78.1835 38.114ZM74.6685 31.274C74.6685 31.7933 74.7445 32.3 74.8965 32.794C75.0485 33.2753 75.2702 33.706 75.5615 34.086C75.8655 34.466 76.2392 34.77 76.6825 34.998C77.1259 35.226 77.6325 35.34 78.2025 35.34C78.7979 35.34 79.3172 35.226 79.7605 34.998C80.2039 34.7573 80.5712 34.4407 80.8625 34.048C81.1539 33.6553 81.3692 33.2183 81.5085 32.737C81.6605 32.243 81.7365 31.7427 81.7365 31.236C81.7365 30.7167 81.6605 30.2163 81.5085 29.735C81.3565 29.2537 81.1285 28.823 80.8245 28.443C80.5205 28.0503 80.1469 27.7463 79.7035 27.531C79.2602 27.3157 78.7599 27.208 78.2025 27.208C77.6072 27.208 77.0879 27.322 76.6445 27.55C76.2139 27.778 75.8465 28.0883 75.5425 28.481C75.2512 28.861 75.0295 29.298 74.8775 29.792C74.7382 30.2733 74.6685 30.7673 74.6685 31.274Z" fill="#52B39D"/>
</svg>
