<svg width="145" height="146" viewBox="0 0 145 146" fill="none" xmlns="http://www.w3.org/2000/svg">
<ellipse cx="72.5" cy="144.027" rx="10.5455" ry="1.97297" fill="#4F43A7" fill-opacity="0.5"/>
<path d="M36.25 108.513C16.2297 88.5367 16.2297 56.1479 36.25 36.1711C56.2703 16.1943 88.7297 16.1943 108.75 36.1711C128.77 56.1479 128.77 88.5367 108.75 108.513L74.7656 142.424C73.5144 143.672 71.4856 143.672 70.2344 142.424L36.25 108.513Z" fill="#4F43A7"/>
<path fill-rule="evenodd" clip-rule="evenodd" d="M73.5724 64.6187C82.3483 60.6434 92.7798 64.3324 96.8713 72.8575C100.963 81.3826 97.1669 91.5168 88.391 95.4904C81.3297 98.6877 56.5687 97.7388 47.1627 97.246C45.5787 97.163 44.7562 95.3742 45.7266 94.1196C51.4152 86.7648 66.529 67.8078 73.5724 64.6187Z" fill="white"/>
<path fill-rule="evenodd" clip-rule="evenodd" d="M71.4279 79.7866C62.652 83.7619 52.2204 80.0729 48.129 71.5479C44.0375 63.0228 47.8333 52.8886 56.6092 48.9149C63.6705 45.7177 88.4312 46.6665 97.8374 47.1593C99.4214 47.2423 100.244 49.0312 99.2734 50.2858C93.5846 57.6402 78.4712 76.5955 71.4279 79.7866Z" fill="#52B39D"/>
</svg>
