<svg width="26" height="32" viewBox="0 0 26 32" fill="none" xmlns="http://www.w3.org/2000/svg">
<path d="M0.42627 21.2898V15.8448H13.4313V21.2898H0.42627ZM0.42627 27.0498V24.0798H15.8613V27.0498H0.42627ZM3.75627 31.9998V0.0498047H15.4113C16.9713 0.0498047 18.3663 0.349804 19.5963 0.949803C20.8563 1.5498 21.9213 2.35981 22.7913 3.37981C23.6913 4.3998 24.3813 5.5398 24.8613 6.79981C25.3413 8.05981 25.5813 9.34981 25.5813 10.6698C25.5813 12.4698 25.1763 14.1798 24.3663 15.7998C23.5863 17.4198 22.4613 18.7398 20.9913 19.7598C19.5213 20.7798 17.7513 21.2898 15.6813 21.2898H9.92127V31.9998H3.75627ZM9.92127 15.8448H15.2763C16.2063 15.8448 16.9713 15.6348 17.5713 15.2148C18.1713 14.7948 18.6063 14.1948 18.8763 13.4148C19.1763 12.6048 19.3263 11.6898 19.3263 10.6698C19.3263 9.55981 19.1463 8.61481 18.7863 7.83481C18.4563 7.05481 17.9613 6.46981 17.3013 6.07981C16.6713 5.6898 15.9063 5.4948 15.0063 5.4948H9.92127V15.8448Z" fill="white"/>
</svg>
